<svg width="30" height="29" viewBox="0 0 30 29" fill="none" xmlns="http://www.w3.org/2000/svg">
<g opacity="0.3" filter="url(#filter0_d_2_80)">
<path d="M15 3C20.392 3 24.878 6.88 25.819 12C24.879 17.12 20.392 21 15 21C9.60803 21 5.12203 17.12 4.18103 12C5.12103 6.88 9.60803 3 15 3ZM15 19C17.0395 18.9996 19.0184 18.3068 20.6129 17.0352C22.2074 15.7635 23.3229 13.9883 23.777 12C23.3213 10.0133 22.205 8.24 20.6107 6.97003C19.0163 5.70005 17.0383 5.00853 15 5.00853C12.9617 5.00853 10.9837 5.70005 9.38941 6.97003C7.79509 8.24 6.6788 10.0133 6.22303 12C6.67713 13.9883 7.7927 15.7635 9.38717 17.0352C10.9816 18.3068 12.9606 18.9996 15 19ZM15 16.5C13.8066 16.5 12.662 16.0259 11.8181 15.182C10.9741 14.3381 10.5 13.1935 10.5 12C10.5 10.8065 10.9741 9.66193 11.8181 8.81802C12.662 7.97411 13.8066 7.5 15 7.5C16.1935 7.5 17.3381 7.97411 18.182 8.81802C19.0259 9.66193 19.5 10.8065 19.5 12C19.5 13.1935 19.0259 14.3381 18.182 15.182C17.3381 16.0259 16.1935 16.5 15 16.5ZM15 14.5C15.6631 14.5 16.299 14.2366 16.7678 13.7678C17.2366 13.2989 17.5 12.663 17.5 12C17.5 11.337 17.2366 10.7011 16.7678 10.2322C16.299 9.76339 15.6631 9.5 15 9.5C14.337 9.5 13.7011 9.76339 13.2323 10.2322C12.7634 10.7011 12.5 11.337 12.5 12C12.5 12.663 12.7634 13.2989 13.2323 13.7678C13.7011 14.2366 14.337 14.5 15 14.5Z" fill="#2E3456"/>
</g>
<defs>
<filter id="filter0_d_2_80" x="-1" y="0" width="32" height="32" filterUnits="userSpaceOnUse" color-interpolation-filters="sRGB">
<feFlood flood-opacity="0" result="BackgroundImageFix"/>
<feColorMatrix in="SourceAlpha" type="matrix" values="0 0 0 0 0 0 0 0 0 0 0 0 0 0 0 0 0 0 127 0" result="hardAlpha"/>
<feOffset dy="4"/>
<feGaussianBlur stdDeviation="2"/>
<feComposite in2="hardAlpha" operator="out"/>
<feColorMatrix type="matrix" values="0 0 0 0 0 0 0 0 0 0 0 0 0 0 0 0 0 0 0.25 0"/>
<feBlend mode="normal" in2="BackgroundImageFix" result="effect1_dropShadow_2_80"/>
<feBlend mode="normal" in="SourceGraphic" in2="effect1_dropShadow_2_80" result="shape"/>
</filter>
</defs>
</svg>
